<?xml version="1.0" encoding="UTF-8" standalone="no"?>
<!-- Created with Inkscape (http://www.inkscape.org/) -->
<svg id="svg4136" xmlns:rdf="http://www.w3.org/1999/02/22-rdf-syntax-ns#" xmlns="http://www.w3.org/2000/svg" height="46.844" viewBox="0 0 171.4897 46.843784" width="171.49" version="1.1" xmlns:cc="http://creativecommons.org/ns#" xmlns:dc="http://purl.org/dc/elements/1.1/">
 <metadata id="metadata4141">
  <rdf:RDF>
   <cc:Work rdf:about="">
    <dc:format>image/svg+xml</dc:format>
    <dc:type rdf:resource="http://purl.org/dc/dcmitype/StillImage"/>
    <dc:title/>
   </cc:Work>
  </rdf:RDF>
 </metadata>
 <g id="layer1" transform="translate(-82.414 -123.88)">
  <g font-size="40px" font-family="sans-serif" fill="#000000">
   <flowRoot id="flowRoot4684" xml:space="preserve" style="word-spacing:0px;letter-spacing:0px" line-height="125%"><flowRegion id="flowRegion4686"><rect id="rect4688" y="110" width="420" x="62" height="186"/></flowRegion><flowPara id="flowPara4690"/></flowRoot>
   <flowRoot id="flowRoot4692" xml:space="preserve" style="word-spacing:0px;letter-spacing:0px" line-height="125%"><flowRegion id="flowRegion4694"><rect id="rect4696" y="71" width="355" x="76" height="213"/></flowRegion><flowPara id="flowPara4698"/></flowRoot>
   <flowRoot id="flowRoot4700" xml:space="preserve" style="word-spacing:0px;letter-spacing:0px" line-height="125%"><flowRegion id="flowRegion4702"><rect id="rect4704" y="73" width="383" x="88" height="263"/></flowRegion><flowPara id="flowPara4706"/></flowRoot>
   <flowRoot id="flowRoot4708" xml:space="preserve" style="word-spacing:0px;letter-spacing:0px" line-height="125%"><flowRegion id="flowRegion4710"><rect id="rect4712" y="66" width="238" x="94" height="341"/></flowRegion><flowPara id="flowPara4714"/></flowRoot>
   <flowRoot id="flowRoot4724" xml:space="preserve" style="word-spacing:0px;letter-spacing:0px" line-height="125%"><flowRegion id="flowRegion4726"><rect id="rect4728" y="92" width="206" x="106" height="89"/></flowRegion><flowPara id="flowPara4730"/></flowRoot>
   <flowRoot id="flowRoot4740" xml:space="preserve" style="word-spacing:0px;letter-spacing:0px" line-height="125%"><flowRegion id="flowRegion4742"><rect id="rect4744" y="70" width="265" x="204" height="92"/></flowRegion><flowPara id="flowPara4746"/></flowRoot>
   <flowRoot id="flowRoot4748" xml:space="preserve" style="word-spacing:0px;letter-spacing:0px" line-height="125%"><flowRegion id="flowRegion4750"><rect id="rect4752" y="0" width="175" x="198" height="139"/></flowRegion><flowPara id="flowPara4754"/></flowRoot>
  </g>
  <path id="path4794" d="m79.903 183.02-22.096-1.3263-9.8995-19.799 12.197-18.473 22.096 1.3263 9.8995 19.799z" fill-opacity=".45810" transform="matrix(.57468 .18233 -.19983 .52437 97.776 38.357)" stroke="#000" stroke-linecap="square" stroke-width="2" fill="#d45500"/>
  <g id="flowRoot4732" transform="translate(86.669 40.699)" stroke="#000" stroke-width="1px">
   <path id="path5389" d="m51.121 100.95q0.74219-0.83985 1.4453-1.3672 0.72266-0.52734 1.3867-0.80078 0.68359-0.27344 1.2891-0.37109 0.625-0.09766 1.1719-0.09766 4.668 0 4.668 5.5078v10.02h-1.5625v-9.8828q0-1.0547-0.19531-1.8164-0.17578-0.78125-0.60547-1.2695-0.41016-0.50781-1.0938-0.74218-0.66406-0.25391-1.6406-0.25391-1.2891 0-2.4805 0.76172-1.1719 0.76172-2.3828 2.1484v11.055h-1.5625v-21.387h1.5625v8.4961z"/>
   <path id="path5391" d="m72.234 114.24q-1.582 0-2.8711-0.52735-1.2891-0.54687-2.2266-1.5625-0.91797-1.0352-1.4258-2.5195-0.50781-1.4844-0.50781-3.3789 0-1.8359 0.48828-3.3008 0.48828-1.4844 1.3867-2.5 0.89844-1.0352 2.1289-1.582 1.2305-0.54688 2.7344-0.54688 1.543 0 2.793 0.54688t2.1289 1.582q0.87891 1.0156 1.3477 2.5 0.46875 1.4648 0.46875 3.3203v0.35156h-11.914q0.11719 1.543 0.56641 2.6758t1.1719 1.8945q0.72266 0.74219 1.6602 1.1133 0.95703 0.3711 2.0703 0.3711 0.78125 0 1.5625-0.17578 0.78125-0.19532 1.4062-0.56641 0.64453-0.37109 1.0742-0.91797 0.42969-0.54687 0.50781-1.25h1.543q-0.21484 1.0742-0.76172 1.9141-0.54688 0.82032-1.3477 1.4062-0.80078 0.56641-1.8164 0.85938t-2.168 0.29297zm4.8633-9.1797q-0.39062-2.5977-1.7773-3.8867-1.3672-1.2891-3.3789-1.2891-0.99609 0-1.8555 0.3125-0.85938 0.3125-1.543 0.95703-0.66406 0.64453-1.1328 1.6211-0.44922 0.97657-0.64453 2.2852h10.332z"/>
   <path id="path5393" d="m92.469 113.84-4.3945-6.2109-4.3945 6.2109h-1.8945l5.332-7.5781-5.332-7.5586h1.9141l4.375 6.2109 4.375-6.2109h1.9141l-5.332 7.5586 5.332 7.5781h-1.8945z"/>
   <path id="path5395" d="m107.62 111.89q-0.80078 0.70312-1.5625 1.1719-0.76172 0.44922-1.5039 0.72266-0.72265 0.25391-1.4453 0.35156-0.72265 0.0977-1.4648 0.0977-0.9961 0-1.8555-0.3125-0.85938-0.29297-1.4844-0.83985-0.625-0.5664-0.99609-1.3476-0.35156-0.80078-0.35156-1.7578 0-2.5977 2.207-4.043 2.2266-1.4453 6.6602-1.4453h1.7969q0-0.99609-0.11719-1.8359-0.11718-0.83985-0.54687-1.4453-0.42969-0.625-1.2695-0.97656-0.83985-0.35156-2.2852-0.35156-2.1289 0-3.2031 0.66406-1.0547 0.66406-1.25 2.0117h-1.543q0.23438-2.1484 1.6797-3.1836 1.4453-1.0547 4.2969-1.0547 1.582 0 2.6758 0.39062 1.1133 0.39062 1.7969 1.1328 0.70312 0.72265 1.0156 1.7773 0.3125 1.0352 0.3125 2.3438v9.8828h-1.5625v-1.9531zm0-5.8398h-2.3633q-3.3984 0-5.0781 0.97657-1.6602 0.97656-1.6602 2.793 0 1.3476 1.0547 2.1094 1.0547 0.74219 2.8906 0.74219 0.80078 0 1.543-0.23438 0.76172-0.2539 1.4258-0.64453 0.66406-0.39062 1.2109-0.85937 0.5664-0.48828 0.97656-0.9375v-3.9453z"/>
   <path id="path5397" d="m125.89 112.95q0 1.8164-0.39063 3.0859-0.39062 1.2891-1.1719 2.0898-0.76172 0.80078-1.9336 1.1719-1.1719 0.3711-2.7148 0.3711-1.2891 0-2.3242-0.29297-1.0352-0.27344-1.7773-0.80078-0.74219-0.52735-1.1719-1.3086-0.41015-0.78125-0.46875-1.7773h1.5625q0.0977 1.3476 1.1133 1.9726 1.0156 0.64454 3.0078 0.64454 1.1719 0 2.0508-0.29297 0.87891-0.27344 1.4648-0.91797 0.58594-0.64453 0.87891-1.6992 0.3125-1.0547 0.3125-2.5977v-0.95703q-0.76172 0.89844-1.4453 1.4258-0.66407 0.50782-1.2891 0.78125-0.625 0.25391-1.2109 0.3125-0.56641 0.0781-1.1133 0.0781-1.4258 0-2.5195-0.56641-1.0938-0.5664-1.8359-1.582-0.74219-1.0352-1.1328-2.4805-0.37109-1.4453-0.37109-3.2226 0-1.875 0.44922-3.3594 0.46875-1.5039 1.2695-2.5391 0.82031-1.0547 1.9141-1.6016 1.1133-0.56641 2.3828-0.56641 0.54687 0 1.1328 0.07813 0.58594 0.07813 1.2109 0.29297 0.625 0.19531 1.2695 0.54688 0.64453 0.35156 1.2891 0.89844v-1.4258h1.5625v14.238zm-1.5625-10.879q-1.0547-1.0938-2.207-1.6406-1.1328-0.54687-2.5195-0.54687-1.0547 0-1.9141 0.41016-0.83984 0.39062-1.4453 1.2109-0.60547 0.80078-0.9375 2.0312-0.33203 1.2109-0.33203 2.8516 0 3.0859 1.1914 4.6875t3.3203 1.6016q1.4062 0 2.5781-0.76172 1.1719-0.78125 2.2656-2.3047v-7.5391z"/>
  </g>
  <g fill="#d45500">
   <g id="flowRoot4780" transform="translate(166.67 40.699)">
    <path id="path5382" style="" d="m53.191 113.84h-2.8516v-2.8516h2.8516v2.8516z"/>
    <path id="path5384" style="" d="m69.129 111.81q-0.56641 0.6836-1.2891 1.1524-0.70312 0.44922-1.4453 0.74218-0.72266 0.27344-1.4453 0.39063-0.70312 0.13672-1.2695 0.13672-4.6484 0-4.6484-5.5274v-10h1.5625v9.8633q0 2.1289 0.78125 3.125 0.80078 0.97656 2.7539 0.97656 1.4062 0 2.6367-0.78125 1.25-0.78125 2.3633-2.2266v-10.957h1.5625v15.137h-1.5625v-2.0312z"/>
    <path id="path5386" style="" d="m87.234 113.84h-1.9531l-5.5078-8.5352-2.4805 2.4219v6.1133h-1.5625v-21.387h1.5625v13.301l7.2656-7.0898h2.0312l-5.7422 5.5859 6.3867 9.5898z"/>
   </g>
   <path id="path4792" fill-opacity=".45810" transform="matrix(.57468 .18233 -.19983 .52437 113.26 56.808)" stroke="#000" stroke-linecap="square" stroke-width="2" d="m79.903 183.02-22.096-1.3263-9.8995-19.799 12.197-18.473 22.096 1.3263 9.8995 19.799z"/>
   <path id="path4796" fill-opacity=".45810" transform="matrix(.57468 .18233 -.19983 .52437 87.88 59.556)" stroke="#000" stroke-linecap="square" stroke-width="2" d="m79.903 183.02-22.096-1.3263-9.8995-19.799 12.197-18.473 22.096 1.3263 9.8995 19.799z"/>
  </g>
 </g>
</svg>
